<svg width="17" height="17" viewBox="0 0 17 17" fill="none" xmlns="http://www.w3.org/2000/svg">
    <path d="M14.2109 12.8419L12.8394 14.2109C12.5891 14.4638 12.1804 14.4638 11.9276 14.2109L8.50001 10.7859L5.07498 14.2109C4.82212 14.4638 4.41091 14.4638 4.16061 14.2109L2.78907 12.8419C2.53621 12.5891 2.53621 12.1804 2.78907 11.9276L6.2141 8.5L2.78907 5.07497C2.53877 4.81956 2.53877 4.40835 2.78907 4.1606L4.16061 2.78906C4.41091 2.5362 4.82212 2.5362 5.07498 2.78906L8.50001 6.21664L11.9276 2.78906C12.1804 2.5362 12.5917 2.5362 12.8394 2.78906L14.2109 4.15805C14.4638 4.4109 14.4638 4.82211 14.2135 5.07497L10.7859 8.5L14.2109 11.9276C14.4638 12.1804 14.4638 12.5891 14.2109 12.8419Z" fill="#E93030"/>
</svg>
