<svg width="20" height="20" viewBox="0 0 20 20" fill="none" xmlns="http://www.w3.org/2000/svg">
    <path fill-rule="evenodd" clip-rule="evenodd" d="M10 2.91666C6.09419 2.91666 2.91669 6.09416 2.91669 9.99999C2.91669 13.9058 6.09419 17.0833 10 17.0833C13.9059 17.0833 17.0834 13.9058 17.0834 9.99999C17.0834 6.09416 13.9059 2.91666 10 2.91666ZM10 18.3333C5.40502 18.3333 1.66669 14.595 1.66669 9.99999C1.66669 5.40499 5.40502 1.66666 10 1.66666C14.595 1.66666 18.3334 5.40499 18.3334 9.99999C18.3334 14.595 14.595 18.3333 10 18.3333Z" fill="#0069C9"/>
    <path fill-rule="evenodd" clip-rule="evenodd" d="M10 12.3282C9.83419 12.3282 9.67419 12.2624 9.55752 12.1441L6.66502 9.23907C6.42085 8.99407 6.42252 8.59823 6.66669 8.3549C6.91169 8.11157 7.30752 8.11157 7.55085 8.35657L10 10.8182L12.45 8.35657C12.6934 8.11157 13.0892 8.11157 13.3342 8.3549C13.5784 8.59823 13.5792 8.99407 13.3359 9.23907L10.4425 12.1441C10.3259 12.2624 10.1659 12.3282 10 12.3282Z" fill="#0069C9"/>
</svg>
