<svg width="26" height="26" viewBox="0 0 26 26" fill="none" xmlns="http://www.w3.org/2000/svg">
    <path d="M21.0553 6.25566C23.7567 10.2857 23.7646 15.6038 21.0553 19.6427" stroke="#130F26" stroke-width="1.5" stroke-linecap="round" stroke-linejoin="round"/>
    <path d="M18.4046 8.90195C19.7933 11.4182 19.7933 14.489 18.4046 16.9964" stroke="#130F26" stroke-width="1.5" stroke-linecap="round" stroke-linejoin="round"/>
    <path fill-rule="evenodd" clip-rule="evenodd" d="M2.9058 12.949C2.90284 14.2992 2.9058 15.8828 4.02064 16.8293C5.13648 17.7767 6.02087 17.3857 7.46367 17.8604C8.90746 18.3361 10.9294 21.269 13.163 19.9444C14.3704 19.0866 14.9397 17.4675 14.9397 12.949C14.9397 8.4305 14.396 6.82914 13.163 5.95361C10.9294 4.62997 8.90746 7.56285 7.46367 8.03754C6.02087 8.51323 5.13648 8.12224 4.02064 9.06868C2.9058 10.0151 2.90284 11.5988 2.9058 12.949Z" stroke="#130F26" stroke-width="1.5" stroke-linecap="round" stroke-linejoin="round"/>
</svg>
